<?xml version="1.0" encoding="UTF-8" standalone="no"?>
<!-- Created with Inkscape (http://www.inkscape.org/) -->
<svg
	xmlns:dc="http://purl.org/dc/elements/1.1/"
	xmlns:cc="http://web.resource.org/cc/"
	xmlns:rdf="http://www.w3.org/1999/02/22-rdf-syntax-ns#"
	xmlns:svg="http://www.w3.org/2000/svg"
	xmlns="http://www.w3.org/2000/svg"
	xmlns:sodipodi="http://sodipodi.sourceforge.net/DTD/sodipodi-0.dtd"
	xmlns:inkscape="http://www.inkscape.org/namespaces/inkscape" id="svg2" sodipodi:version="0.32" inkscape:version="0.45.1" width="744.09448" height="425.41" version="1.0" sodipodi:docbase="C:\Dokumente und Einstellungen\Wassily\Desktop\Neuer Ordner (2)" sodipodi:docname="Poz.svg" inkscape:output_extension="org.inkscape.output.svg.inkscape">
	<metadata id="metadata7">
		<rdf:RDF>
			<cc:Work rdf:about="">
				<dc:format>image/svg+xml</dc:format>
				<dc:type rdf:resource="http://purl.org/dc/dcmitype/StillImage"/>
			</cc:Work>
		</rdf:RDF>
	</metadata>
	<defs id="defs5"/>
	<sodipodi:namedview inkscape:window-height="730" inkscape:window-width="876" inkscape:pageshadow="2" inkscape:pageopacity="0.0" guidetolerance="10.0" gridtolerance="10.0" objecttolerance="10.0" borderopacity="1.0" bordercolor="#666666" pagecolor="#ffffff" id="base" width="744.09448px" height="425.41px" inkscape:zoom="3.3667716" inkscape:cx="237.66691" inkscape:cy="134.40729" inkscape:window-x="396" inkscape:window-y="0" inkscape:current-layer="svg2"/>
	<rect id="background" width="100%" height="100%" fill="#A0A0A0"/>
	<g id="country">
		<path style="fill:white;fill-opacity:1;fill-rule:evenodd;stroke:#8a8a8a;stroke-width:3;stroke-linecap:round;stroke-linejoin:round;stroke-miterlimit:4;stroke-dasharray:none;stroke-opacity:1" d="M 74.506949,273.83985 L 52.130274,305.56063 L 92.21157,384.24784 C 92.21157,384.24784 113.52751,380.31759 113.68903,379.34736 C 113.86106,378.31402 126.5853,367.29523 128.34103,367.05249 C 129.42872,366.90211 141.37083,363.59943 145.07954,364.08424 C 148.271,364.50143 159.85528,373.89825 159.58749,374.16604 C 158.78592,377.52664 161.69674,380.88724 164.50544,384.24784 C 165.95408,387.8293 166.95215,389.60853 167.94801,391.37887 C 172.07863,392.24564 174.18054,391.69668 177.58434,389.82426 L 177.78391,292.77396 L 223.27495,277.77421 L 268.40588,314.12485 C 268.40588,314.12485 282.53625,332.85526 284.01164,332.85526 C 285.48702,332.85526 303.16181,329.10969 303.16181,329.10969 C 303.20422,329.05314 327.06325,330.35359 326.69595,331.08923 C 325.68321,333.11752 334.808,326.20111 334.808,326.20111 C 338.68667,330.31384 342.19409,334.55033 346.70059,338.45379 L 351.38756,349.57629 L 356.53649,345.43822 L 354.58422,372.19886 L 363.92833,372.19886 C 363.92833,372.19886 364.92535,382.0195 364.91192,384.00194 C 364.89444,386.5828 366.8791,394.82143 366.8791,394.82143 C 366.8791,394.82143 376.42374,396.21043 379.17398,394.82143 C 382.0236,393.38224 389.96016,394.50574 389.25577,394.32964 L 392.94424,398.50989 C 391.95235,400.12105 390.44961,401.44029 390.97706,403.91964 C 391.15201,404.96932 398.99462,412.43087 400.56706,408.83759 C 401.53299,406.63028 399.69469,402.93605 399.58347,402.93605 C 398.89783,400.79089 403.0473,399.24654 402.78014,398.75579 C 402.42052,398.09521 404.1471,393.368 407.69809,393.34605 C 409.61858,393.33418 407.69809,387.44451 409.41937,387.44451 C 411.14065,387.44451 413.84553,384.73963 413.84553,384.73963 L 419.74707,380.55937 C 422.02343,380.21983 424.20746,379.82259 424.66502,378.3463 C 424.66502,378.3463 428.00658,377.24168 428.84527,375.39553 C 432.80407,366.68137 433.69238,370.96424 436.714,371.21527 C 434.62694,369.67744 440.3002,365.08307 442.61554,365.80552 C 443.55448,366.0985 439.91066,363.83834 439.91066,363.83834 C 440.16939,364.22644 443.82637,361.33245 443.10733,359.65809 C 442.1617,357.45609 444.35371,355.46437 445.56631,355.96962 L 447.04169,352.52706 L 450.23836,351.29757 L 453.43503,351.54347 C 453.93054,350.33222 458.84688,352.2317 461.54965,351.78936 C 462.94495,351.56101 472.74485,353.29295 472.12324,354.74014 C 472.61989,353.80201 474.83413,355.13859 475.31991,357.9368 C 475.48815,358.9059 480.02309,357.2708 482.25558,357.8277 C 484.48807,358.38459 484.41811,361.13347 484.41811,361.13347 L 486.87709,361.37937 C 487.63506,361.15126 485.84458,357.58523 485.91704,355.86489 C 485.98951,354.14455 486.88167,352.53114 487.70172,349.94875 C 488.69354,346.82543 487.82035,344.80494 488.17859,344.80494 L 492.73388,342.92214 C 499.34798,339.67997 504.13592,339.97597 507.04069,343.92064 C 511.81248,347.83781 514.42498,347.86826 518.10607,349.82218 L 525.483,350.55988 L 528.11329,346.82667 L 540.97454,348.3468 L 548.84326,346.37962 L 552.28583,348.1009 C 552.28583,347.00542 565.3184,348.40666 566.79378,349.57629 C 568.01248,350.54243 575.89199,348.9528 575.89199,348.9528 L 584.31217,352.23897 L 587.69507,351.54347 C 587.6332,353.40285 587.64179,355.17163 589.17046,354.98603 C 589.17046,354.98603 590.64584,357.44501 591.62943,357.9368 C 592.61302,358.4286 591.73119,360.33966 592.61302,359.90398 C 594.55712,358.94347 602.33018,360.02273 601.95713,360.39578 C 601.40227,360.95064 606.02529,369.36018 606.87508,367.7727 C 607.35356,366.87885 604.662,355.96962 604.662,354.74014 C 604.662,353.51065 606.67137,350.28414 606.67137,350.28414 C 609.82429,350.43576 610.90942,349.03653 612.28482,347.855 C 612.28482,347.855 607.45125,346.39453 608.43484,345.41094 C 609.41843,344.42735 614.00611,341.95346 614.00611,341.95346 L 616.46508,343.42885 C 616.00465,334.16671 611.14926,324.73069 608.39266,315.46855 L 608.59636,307.28191 C 608.59636,307.28191 608.61235,305.30098 608.59636,303.10166 C 608.58256,301.20377 611.67933,301.33036 610.91129,299.80314 C 609.73689,297.46789 605.22326,297.41874 605.22326,297.41874 C 605.22326,297.41874 602.69482,299.41319 601.71123,298.4296 C 600.72764,297.44601 599.28465,295.26277 599.28465,295.26277 C 601.39921,293.57727 602.47934,291.27111 607.85867,291.54447 C 609.83416,289.79175 613.49396,288.59739 619.20767,287.92835 C 623.29575,287.44966 627.08491,285.51443 630.48124,283.92165 C 632.5418,281.03686 636.53285,290.20285 636.87458,289.0855 C 637.44806,287.21042 643.87111,286.11771 646.21868,289.57729 C 646.21868,289.57729 650.64484,284.90524 648.92356,282.20037 C 647.20227,279.49549 643.26791,281.21678 642.77612,278.7578 C 642.28432,276.29883 645.23509,272.61036 645.48099,271.13498 C 645.72689,269.65959 647.93997,258.8401 647.93997,258.8401 C 647.93997,258.8401 651.38253,250.47959 652.12022,248.26651 C 652.85792,246.05343 654.8251,241.13548 654.8251,241.13548 C 655.57085,238.38223 653.77034,232.63338 658.02176,234.00445 L 672.52972,240.88958 C 674.81915,239.52934 679.54915,239.94406 684.3328,240.39779 C 684.3328,240.39779 686.2153,247.25717 687.28357,245.06984 C 689.00485,241.54546 697.85716,237.56584 697.85716,238.18471 C 698.80924,238.59274 706.00897,230.22813 703.02101,230.07009 C 701.27554,229.97777 699.01803,220.5125 699.33255,218.02111 C 699.57894,216.06942 702.83952,205.20144 702.52921,203.75906 C 702.13205,201.91298 707.11562,200.83266 711.56776,201.41429 C 714.15967,201.7529 717.20764,198.18119 719.25025,197.36572 C 722.20387,196.18655 722.13823,189.7732 721.46332,188.51341 C 719.13326,184.16409 727.81819,181.54426 731.79102,184.82495 C 734.44551,187.01698 729.57794,179.6611 729.57794,179.6611 C 729.57794,179.6611 726.61895,177.67386 725.39768,178.18572 C 723.99778,178.77245 721.81933,173.29345 721.95512,173.02187 C 721.32943,171.84431 720.06229,171.3082 718.51255,171.05469 C 718.73736,170.4294 718.46925,169.55765 719.98794,169.5793 C 721.35303,169.08751 721.73495,168.59571 721.95512,168.10392 C 722.17722,166.4884 721.39612,165.87608 720.23384,165.64494 C 719.41418,165.13442 718.59452,165.0863 717.77486,166.87443 C 717.38781,168.92557 716.39002,170.28962 714.15331,170.25989 C 712.84341,168.80444 712.52949,175.26364 711.87332,174.74315 C 710.87529,173.95149 703.24232,171.63992 702.77511,171.54648 C 700.18954,169.64583 697.21236,170.4864 694.1687,171.79238 C 694.62267,167.54987 691.92481,164.20849 689.68288,161.56654 C 690.02537,160.74212 691.88967,159.74941 690.48024,158.26802 C 686.89055,156.98354 684.99709,154.28554 678.92305,155.07135 C 678.83098,155.39361 674.99272,150.83811 675.72639,146.71083 C 676.40892,142.87123 673.46723,142.67789 672.29729,142.1095 C 670.67547,141.32156 672.52972,138.59621 672.52972,138.59621 C 668.84126,136.77289 665.15279,134.454 661.46433,133.92416 C 658.8634,133.23523 658.40729,134.21449 657.83043,135.09983 C 656.9373,135.90812 657.43541,137.32507 653.10381,136.62903 C 647.62987,134.87444 648.97432,139.55944 647.20227,141.30109 C 647.20227,140.21292 636.91458,140.17143 640.07124,142.03878 C 642.06302,143.21703 633.87938,139.46241 630.97304,139.8257 C 630.88878,140.96389 629.1767,140.77023 626.54688,139.8257 C 628.81143,132.84174 624.41177,134.57251 620.89124,135.15365 C 620.6048,132.76322 624.23485,126.99037 619.41585,128.51442 L 615.91874,126.29878 C 614.28577,124.4955 613.23888,126.79473 612.03893,128.02262 C 610.47117,128.2331 607.92903,127.68573 610.31764,130.97339 L 609.57995,135.15365 C 606.47241,136.42591 602.37686,137.45117 603.67841,139.8257 C 603.67841,139.8257 580.31815,99.006714 578.84276,96.055944 C 577.36738,93.105174 568.26917,79.58081 568.26917,79.58081 L 561.38404,69.744909 L 539.74506,54.991058 C 540.87834,54.991058 537.85339,50.622008 538.62978,49.884315 C 539.8256,48.74811 542.90755,51.73365 544.17121,50.564903 C 545.37922,49.447626 546.7402,45.701962 546.13839,45.401055 C 546.37621,43.665337 545.83334,42.515139 545.1548,41.466695 C 543.65782,42.912733 542.56689,44.602398 539.99095,45.401055 L 535.073,45.401055 L 535.073,47.86003 C 530.1761,48.570647 527.94458,50.46588 524.99121,52.040288 L 522.28633,51.056698 C 520.49176,51.20944 519.31537,51.733097 519.82736,53.269775 C 520.45026,53.955559 521.82712,54.578514 519.82736,55.482853 C 518.84879,54.95593 514.17633,60.327629 514.17171,60.154906 C 514.10974,57.835941 508.02428,58.925418 508.02428,58.925418 C 507.61036,60.185131 508.15043,61.564094 506.0571,62.613881 C 504.43166,61.927018 503.40947,62.02437 504.08992,64.335164 C 503.2836,63.857343 504.1917,66.714402 504.08992,68.269524 C 503.93107,70.696565 499.2018,65.144878 499.2018,65.144878 C 497.96236,63.839567 496.72293,64.352328 495.4835,64.335164 C 492.33864,62.937498 491.23153,64.59644 489.33606,65.072856 C 489.33606,64.697267 486.13105,69.908856 485.8935,68.761319 C 485.44402,66.589993 483.1009,66.428713 482.69683,65.810549 C 481.50431,63.986167 482.79679,64.48048 483.37486,62.613881 C 483.66417,61.679678 484.90275,55.91837 488.35247,57.941828 L 490.07376,58.433623 C 490.11822,55.880465 491.09387,54.44472 492.28684,53.269775 C 490.99851,53.6502 488.44203,49.863854 488.59837,54.991058 C 485.58246,55.680445 482.7446,54.900222 479.29901,54.730244 L 478.51657,52.040288 C 476.96342,50.585228 474.29284,50.992547 472.12324,50.564903 L 470.15606,52.286185 C 473.88667,53.238439 473.70829,54.562978 472.61503,55.974648 C 470.39709,55.097104 470.93977,56.059974 470.64785,56.466443 C 469.39939,56.454438 467.08975,57.02126 468.18888,55.728751 C 467.50725,54.287005 467.98851,53.542991 468.43478,52.77798 C 470.06068,52.991835 468.49934,51.156746 466.95939,49.335415 L 467.69708,47.614133 C 465.37127,46.390798 464.51495,44.873566 463.27093,43.433875 L 462.04144,44.171567 C 462.50811,45.810884 461.30099,47.450201 464.25452,49.089518 C 464.20452,50.023103 464.14821,50.95039 462.28734,50.073108 C 455.25118,45.33429 456.61184,48.712406 456.1399,50.319005 C 455.83131,51.95951 453.84571,51.713384 451.71374,51.302595 C 450.36618,47.965214 448.32753,48.601549 446.0581,50.564903 C 444.94305,51.087592 444.29647,48.074604 442.76214,46.081642 C 442.76214,46.081642 447.53464,46.321031 446.5499,44.90926 C 444.34729,41.751492 447.82341,35.397483 448.02528,36.548744 C 448.35031,38.402371 441.92515,32.705625 442.86143,25.975151 C 443.10872,24.197536 438.12533,20.820453 439.91066,20.565405 C 439.19195,19.170255 437.86613,19.141109 436.2222,19.827713 C 434.57169,18.304168 430.92579,22.747832 429.29232,23.471427 C 425.38186,25.203677 421.02539,18.760678 421.39121,19.492318 C 419.39122,18.913354 416.96527,16.73704 415.81271,19.335918 C 413.97341,15.686895 412.79059,17.289718 411.63245,19.09002 C 410.37923,15.982337 408.12318,16.635282 405.97681,16.876942 C 406.76207,18.176931 407.53411,19.472509 406.9604,20.319508 C 405.49343,18.358548 403.96701,16.932615 402.04245,19.09002 L 401.05886,22.532585 C 398.29168,22.82765 393.69702,20.6307 393.19013,24.007971 C 393.19013,24.007971 397.37039,23.762073 395.89501,25.975151 C 394.41962,28.188228 391.96065,29.417716 391.96065,29.417716 C 391.77069,28.990306 385.6897,26.663775 385.56731,30.893101 C 385.54447,31.682558 381.08551,28.843007 378.15301,31.620893 C 376.41534,33.266943 369.71766,33.828704 369.09218,34.335666 C 364.39002,35.491544 360.14998,35.261043 354.83012,38.270027 C 353.6905,33.139181 351.16443,36.604288 348.92858,38.270027 C 345.91462,37.067276 343.38074,37.944827 341.05986,39.745412 C 339.83182,41.712592 340.48175,43.679772 341.30576,45.646952 L 338.35499,46.138747 C 336.7309,43.260563 334.75768,42.477136 332.20755,45.155157 C 328.48524,45.427072 324.50183,45.646767 321.87985,46.138747 C 320.7899,46.585604 317.48042,45.429462 320.15857,48.597723 L 315.97831,49.581313 C 315.75441,46.190868 311.64889,48.068318 308.35549,48.84362 C 306.25911,49.29409 304.43857,49.985913 304.17523,52.040288 L 298.02779,51.548493 C 296.28476,50.253672 290.67441,54.31301 294.33933,57.941828 C 295.99701,59.583176 290.08961,54.238449 290.08961,54.238449 C 287.80472,54.501965 284.92879,51.613232 283.27394,55.236956 L 279.33958,54.991058 C 276.82229,52.848916 275.60441,54.605025 273.92984,54.991058 C 272.735,54.377581 272.2455,53.623035 272.20855,52.77798 L 269.25778,54.991058 C 267.88818,55.602598 263.68828,55.20332 268.27419,57.941828 L 270.48727,58.679521 C 270.0418,58.170418 268.6358,61.340988 267.5365,62.613881 C 266.09,64.288803 263.84804,62.122086 263.84804,62.122086 C 264.87621,63.461995 265.40655,65.797577 267.72785,64.551229 C 267.82709,63.988916 268.37251,67.517894 269.99548,66.302344 C 271.867,64.900639 277.22403,64.968962 276.88061,66.056447 C 276.55127,66.64941 276.26619,68.020026 275.15932,68.761319 C 272.97254,70.162638 271.93264,68.696783 270.61639,67.921772 C 269.65699,68.653468 268.65688,69.359725 269.50368,71.220294 C 269.50368,71.220294 268.31685,74.445666 271.47086,73.925167 C 272.92708,73.68485 275.28162,74.423467 277.29316,75.718221 C 279.08613,76.872282 281.06087,76.63004 281.06087,76.63004 C 282.78215,76.897751 284.50343,77.195269 286.22471,78.59722 C 285.95046,79.771549 286.29746,81.2565 284.74933,81.793888 L 277.8642,81.302093 C 277.46206,80.598353 271.85088,79.692585 271.96266,82.039785 C 272.02114,83.267883 268.67905,79.983108 268.67905,79.983108 C 266.22008,82.442083 262.90874,86.321655 261.30212,87.360034 C 260.59282,87.963332 259.99315,88.621449 260.65137,89.908506 C 261.73648,90.968792 263.75204,90.478328 263.60214,93.596969 C 266.19712,94.922387 266.67216,97.307774 268.0283,99.252612 C 263.32995,99.860223 261.47113,101.72984 258.68419,103.18697 C 255.77283,103.872 252.74461,104.4499 252.53675,107.61313 C 250.52604,107.13563 248.09658,106.11972 247.6188,107.61313 L 249.34009,111.05569 C 256.14367,111.07561 259.09992,112.20697 255.48752,115.23595 L 257.9465,116.95723 L 265.32342,116.95723 C 265.11567,118.56839 264.156,120.2374 266.79881,121.62929 L 273.19214,121.13749 C 274.54583,122.58308 275.1953,123.5005 277.3724,125.56365 L 278.35599,127.28493 L 276.38881,128.76031 L 272.94625,138.59621 C 272.07828,137.80715 259.68921,144.03208 260.65137,144.25186 C 261.991,144.55786 251.65817,140.31794 250.81547,141.30109 C 250.84697,138.30289 250.93655,135.18172 247.12701,140.3175 C 246.87979,141.87485 246.76942,143.4322 245.40572,144.98955 L 241.71726,146.95673 C 241.71726,146.95673 236.89941,147.96922 238.2747,147.20263 C 244.95972,143.47638 234.99813,142.81392 233.60264,143.26827 L 227.7011,141.30109 C 226.11983,141.30109 221.15491,135.21077 224.01264,134.66185 C 227.41155,134.00898 222.59768,130.85346 220.07828,130.72749 C 220.31718,129.47315 216.87702,128.76065 217.08625,130.7042 C 217.16172,131.40527 217.57495,132.54223 216.88161,132.44878 C 215.33636,132.24051 207.42971,129.65799 207.7834,131.95698 C 209.11347,136.49536 208.1915,137.37417 205.81622,135.89134 C 204.10178,139.24745 201.2621,134.35185 198.93109,133.18647 C 192.0311,130.8111 188.17179,130.81898 189.83289,135.15365 C 189.83289,135.15365 187.07645,128.31598 186.14442,131.71108 C 185.05497,135.67961 183.00957,137.24445 182.70186,136.62903 L 180.73468,136.62903 L 179.75109,141.79288 C 177.14989,142.93619 174.34086,143.92363 172.62006,145.72724 C 173.19365,143.91698 163.19557,141.59187 165.24313,143.26827 C 166.2019,144.05324 157.09633,132.54147 155.89903,132.94057 C 154.36434,133.26758 152.25152,133.06448 151.75116,134.52898 L 154.91544,137.12083 C 153.55658,140.01205 154.23602,142.29179 155.16134,144.49776 C 154.98195,144.89242 149.83789,149.12749 150.24338,144.00596 C 150.38333,142.2383 149.01021,141.41387 149.99749,140.3175 C 152.52309,137.51285 150.62551,136.88088 148.2762,136.62903 C 146.95955,136.48788 145.07954,132.94057 145.07954,132.94057 L 142.62056,129.9898 C 142.88391,127.35629 139.94273,128.81607 137.70261,127.28493 C 134.10511,124.82601 135.65109,123.15195 135.6958,123.10723 C 134.66409,120.53373 131.80944,121.03883 130.98451,121.15344 C 128.57498,120.70083 126.00869,120.13065 125.39282,121.02328 C 124.90133,121.30259 121.35793,121.72936 120.48223,120.47983 C 119.6663,119.31558 119.24164,125.68765 116.25242,121.59945 C 115.97737,121.22328 113.97846,114.43596 113.60465,114.49826 C 113.48601,110.14353 109.7103,114.72831 107.70311,114.99005 C 106.27752,114.22974 100.9019,118.42819 104.26055,120.6457 C 105.75447,121.63204 98.359008,120.89159 96.883623,120.89159 C 95.408238,120.89159 91.110552,119.92364 93.19516,119.66211 C 99.160664,118.91369 95.440206,115.33118 92.21157,114.74416 L 88.27721,115.48185 C 83.884553,110.28628 85.318556,113.83071 86.31003,116.71134 C 85.645875,117.39158 86.619526,118.61775 84.096952,118.67852 C 83.113362,113.52253 82.129772,117.49157 81.146182,121.62929 C 78.650049,121.58844 77.623154,123.5678 76.965924,126.05544 C 76.448728,125.45063 70.117717,127.95702 68.851306,130.72749 C 67.977772,132.63848 64.214203,129.04838 64.214203,129.99704 C 59.490759,131.03851 60.020168,134.38639 61.419834,137.65482 C 57.383362,138.81009 53.900251,140.24205 52.622069,142.77647 C 48.147112,144.12403 47.866725,143.02209 47.950016,144.82547 C 46.972803,144.58117 50.776038,157.46794 52.376172,158.84163 C 54.150212,160.36461 43.639525,165.24839 41.991371,164.42781 C 40.098536,163.4854 39.069909,157.74376 37.130526,157.03853 C 37.130526,157.03853 33.68796,150.1534 31.72078,148.92391 C 29.7536,147.69442 29.261805,147.44853 29.261805,147.44853 C 27.720468,149.03169 27.944068,152.55628 24.343854,151.87468 C 22.621432,154.42297 23.602857,157.21706 24.343854,159.9893 L 17.458724,164.90725 L 15.737441,177.44802 C 21.391316,180.72695 21.762047,184.8864 13.524364,190.48059 L 9.0982082,202.28367 L 20.409494,205.48034 C 20.766461,209.98846 19.881319,214.49658 21.884879,219.0047 L 24.589752,221.21778 C 26.317019,220.90504 25.533957,219.15784 25.81924,218.02111 L 29.261805,218.51291 C 30.111274,220.37427 34.939157,219.05291 37.868218,219.2506 L 44.999246,228.8406 C 47.375608,231.71005 48.943159,235.38832 50.900787,238.67651 L 54.094896,246.50048 C 54.11856,247.69862 53.164463,247.77931 51.566884,247.1246 L 48.933606,247.77471 C 47.415572,246.25001 45.693423,243.70474 45.736939,249.98779 C 46.923734,251.86209 47.91906,252.01317 48.876501,251.82328 L 59.5072,257.11882 L 70.572588,267.20062 L 74.506949,273.83985 z " id="pathCountry" sodipodi:nodetypes="cccssscccccccscsccccccscscccscssscccscscsccccscssccsscccccccccsccccsscssccsccccsscsccscscssscsccccscssssssscscccccccscccccsscccccscccccccccscccsscccccccccscccscccsssccccccccccccccccccccccsssccsccccccccscsscccccccccccccsccccccccsccsccccssccccsccccccccccccccccccsccccsccscssccccsccccsccccsssccscccssccsssccccccsccccsscsccccccccccccccccccccccc"/>
	</g>
	<g id="regions">
		<path style="fill:none;fill-rule:evenodd;stroke:#8a8a8a;stroke-width:1px;stroke-linecap:round;stroke-linejoin:round;stroke-opacity:1" d="M 494.87374,92.724043 L 487.08967,90.790744 C 486.75353,89.591313 485.88856,88.568159 483.52833,88.043424 L 476.76178,86.771517 C 476.76178,86.771517 475.48987,83.56631 475.48987,83.311928 C 475.48987,83.057547 475.53132,80.66162 475.38812,80.411979 C 474.92822,79.610226 473.00591,79.466282 473.14956,79.801464 L 470.65662,81.073371 L 466.8409,80.81899 L 463.33044,83.261052 L 457.58142,83.311928 C 455.71887,82.38168 455.22447,81.622452 454.37621,80.81899 C 455.12766,78.682185 454.85354,76.545381 455.08848,74.408576 C 454.55896,72.82516 453.5643,71.86194 452.64641,70.796359 C 451.2621,70.436476 450.69754,70.691407 449.79734,70.694607 L 447.35528,72.780535 L 443.79394,72.119143 L 442.1659,69.82971 L 436.41688,69.931462 C 435.24111,71.016823 433.92153,72.102184 431.93976,73.187545 C 430.2648,72.13468 429.08839,69.835443 427.66615,68.150792 L 424.5627,67.998163 L 422.52765,66.319245 C 422.56731,65.432506 423.18369,64.298598 422.37502,63.77543 L 417.99966,62.198265 L 415.50672,64.589451 L 415.65935,66.828008 C 414.72732,67.978605 414.33311,67.157216 413.77692,66.929761 L 413.72605,65.199967 L 410.26646,63.012286 L 408.63842,64.640327 L 405.78935,63.77543 L 400.0912,69.524452 C 400.32913,71.901579 402.90445,73.428744 404.46656,75.32435 L 404.46656,79.394454 L 401.87187,81.022495 L 403.70342,85.092599 L 400.59996,85.703114 L 397.0895,88.552187 L 396.12285,91.146878 L 393.42641,91.096002 C 392.28834,91.539513 392.05619,92.230094 392.40888,93.080177 L 389.96682,92.978425 L 389.76331,94.352085 C 390.64951,94.651877 391.29673,94.985808 391.23872,95.420487 C 388.99511,96.657996 387.66988,100.03837 383.96341,97.862549 C 383.2681,97.510059 382.5728,96.771177 381.87749,95.878374 L 377.24774,96.33626 L 377.3495,101.72915 C 376.17154,101.28768 375.4658,100.46843 373.6864,100.50812 C 370.72533,101.08081 367.55997,100.22353 364.47779,99.948478 C 363.7157,100.32952 364.30782,98.049285 364.78305,97.811673 C 364.98656,97.709919 363.89447,97.42182 363.40939,97.557292 C 362.92136,97.693587 358.66706,98.488917 358.93228,98.930952 L 356.0832,95.827497 L 354.8113,95.827497 L 355.16743,86.262754 L 356.99898,83.97332 C 356.99898,83.97332 361.73047,83.617186 361.73047,83.413681 C 361.73047,83.210176 361.32346,82.141774 361.32346,82.141774 L 355.98145,81.938268 C 355.98145,81.938268 355.42181,79.597959 355.62532,79.292701 C 355.82882,78.987443 357.55862,78.020794 357.55862,78.020794 L 361.47609,78.122546 L 361.57784,76.290999 L 358.98315,75.680484 L 358.77965,67.89641 C 358.77965,67.89641 356.46156,67.467089 356.23583,67.438524 C 355.68283,67.368544 356.49545,62.956309 357.55862,62.859657 L 357.15161,60.010584 C 356.91429,60.265068 356.41972,60.262307 355.37093,59.705327 L 354.60779,54.515944 L 358.42351,52.277387 L 360.71295,52.124758 C 360.28631,50.962608 359.74751,50.136956 359.18666,49.377438 L 357.66037,49.326562 C 357.66037,49.326562 356.54109,48.309036 356.49021,48.105531 C 356.43934,47.902026 358.42351,46.782747 358.42351,46.782747 C 356.53174,44.415061 356.4758,40.762295 355.82882,37.523261" id="pathNorthKasakhstan1" sodipodi:nodetypes="ccccsscccccccccccccccccccccccccccccccccccccccccccccsscccccsccscccccsccccccccscc"/>

		<path style="fill:none;fill-rule:evenodd;stroke:#8a8a8a;stroke-width:1px;stroke-linecap:round;stroke-linejoin:round;stroke-opacity:1" d="M 319.78339,208.61709 L 323.94074,204.87548 L 322.69353,201.46645 L 329.0127,200.21925 L 326.352,195.47987 L 331.34082,194.89784 L 332.17229,188.66181 L 345.6421,191.57196 C 348.76465,191.01551 350.31918,189.06528 351.4624,186.74943 L 355.61975,186.74943 L 355.86919,188.49552 L 360.85801,181.09544 C 364.29834,180.69246 364.48821,178.77261 364.68277,176.85494 L 367.01089,173.19647 C 372.24158,171.14357 373.46904,166.93508 376.07391,163.46827 C 376.56818,160.16446 380.64933,158.85337 382.97511,156.56707 C 381.84775,154.23071 383.49293,153.62719 385.88526,153.49063 L 389.12799,152.16028 L 391.53925,149.25013 C 391.9116,147.58117 390.10251,147.00292 389.29428,145.92425 L 387.13246,147.17146 C 384.602,147.58593 380.07537,147.09304 379.73238,148.50181 L 377.07167,150.33104 L 373.74579,148.25237 L 374.90985,145.67481 L 371.25138,142.26578 L 369.25585,143.92872 L 365.2648,142.76467 L 360.85801,143.01411 L 356.28492,138.77361 L 354.87142,138.77361 L 353.29163,136.1129 L 350.96351,136.1129 L 349.55001,139.27249 C 348.5076,138.69046 347.661,138.10843 345.55896,137.5264 L 346.80616,132.205 L 343.81287,129.12856 C 344.1794,129.12856 343.78163,125.55324 343.56343,125.22065 C 343.23453,124.71933 345.8084,124.55547 345.8084,124.55547 L 344.97693,122.72624 L 346.14099,119.15092 C 344.06799,117.36882 342.31875,115.64069 341.5679,114.07895 C 343.60287,112.87119 346.2143,112.23988 349.13428,111.91713 C 350.19858,109.64444 350.50538,107.37176 350.46463,105.09907 L 352.87589,102.68781 L 352.95904,98.114723 L 355.03772,95.454019" id="pathKostanay1" sodipodi:nodetypes="cccccccccccccccccccccccccccccccccccccsccccccccc"/>

		<path style="fill:none;fill-rule:evenodd;stroke:#8a8a8a;stroke-width:1px;stroke-linecap:round;stroke-linejoin:round;stroke-opacity:1" d="M 489.48643,126.30156 L 488.07293,125.63638 L 484.58075,125.38694 C 483.91679,126.69171 482.6894,127.01046 480.25711,125.22065 C 480.25711,125.22065 483.34276,131.16836 483.16725,130.7915 C 482.64056,129.66059 486.47555,127.86025 487.74034,129.378 L 484.83019,132.87017 L 480.67284,133.70164 C 481.34937,134.99893 481.59295,135.97152 480.50655,135.94661 L 477.01437,137.27696 L 473.85479,136.77808 C 472.68956,137.37781 472.11031,138.36818 472.275,139.85452 L 468.20079,141.10173 L 467.53562,142.34893 L 468.86597,143.84558 L 468.61653,145.75796 L 465.04121,145.00963 L 463.12882,145.59166 L 464.04344,147.75349 L 462.5468,149.08384 C 460.10181,147.51133 457.82607,146.51426 456.47706,148.6681 L 454.56468,148.8344 L 456.39392,146.33999 L 456.56021,144.01187 L 455.72874,143.76243 L 456.64336,142.59837 C 460.6402,141.01085 456.85914,141.21822 455.56245,140.85228 C 453.84289,139.96776 452.23399,138.86191 448.5781,141.85005 L 448.49495,143.09725 L 445.41851,144.34446 C 444.1002,144.68608 443.91523,145.8777 443.42298,146.83887 C 442.11975,147.89624 440.92917,148.16504 439.84766,147.67034 L 438.51731,148.41866 C 438.48997,150.31035 439.17005,152.37889 438.35102,154.07266 L 436.77122,155.07042 C 432.5887,158.04044 432.12213,158.15203 430.61835,159.06148 L 427.87449,158.06371 C 427.87449,158.06371 428.75299,153.86336 428.29023,153.32434 C 426.05784,150.72407 420.43443,154.01269 420.30812,154.40525 C 420.06786,155.15196 418.14629,153.57378 418.14629,153.57378 C 415.6561,146.23888 411.48031,152.72586 408.00236,153.49063 L 404.09445,151.91084 L 404.75963,140.02081 C 403.16488,137.19522 400.1531,139.75433 397.52584,140.85228 L 393.45163,143.26355 C 391.89371,142.99079 390.6303,142.03084 388.46281,143.1804 L 388.87855,145.8411" id="pathAkmola1" sodipodi:nodetypes="ccccsccccccccccccccccccccccccccccccccsscccccccc"/>

		<path style="fill:none;fill-rule:evenodd;stroke:#8a8a8a;stroke-width:1px;stroke-linecap:butt;stroke-linejoin:round;stroke-opacity:1" d="M 560.98786,154.22213 L 559.64777,152.60478 C 561.00704,150.48345 560.01693,149.05312 559.37052,147.5217 C 558.31952,147.2412 557.6203,146.52099 557.06002,145.62709 C 555.14062,145.06318 554.28805,145.5661 553.17839,145.81193 C 552.459,144.23262 550.49112,143.48563 549.11192,142.34619 C 548.08013,142.59276 546.73724,142.68378 546.38554,143.27039 L 544.81441,144.88774 C 544.27529,146.18198 543.73618,147.41645 543.19706,149.18525 C 542.52348,149.87886 543.30713,150.73439 543.65916,151.54196 C 543.10921,152.7061 542.34042,153.33877 540.93278,152.41994 C 539.40395,151.43348 538.053,152.58158 536.63526,152.92825 C 535.30554,155.05676 533.88229,154.37968 532.43016,152.83583 L 528.17885,155.0077 C 525.29843,155.24625 522.41802,155.34968 519.5376,155.4698 C 517.35162,156.82606 514.51107,157.78957 513.4379,159.81352 L 512.09781,159.85973 L 510.6191,156.67125 C 511.65099,156.2551 512.60546,155.68412 513.39169,154.77665 L 515.2863,154.73044 L 515.97944,153.71382 L 512.60612,148.58453 C 511.30476,148.77044 509.64145,147.23887 509.6949,147.01339 C 509.76314,146.72548 507.06094,147.15202 507.06094,147.15202 C 505.84491,146.41241 505.85865,145.30387 507.10715,143.82491 L 506.78368,143.03934 C 505.28956,143.25312 503.79544,143.35357 502.30132,142.71587 L 495.32363,143.87112 C 493.34168,143.58364 493.51806,141.64567 493.56766,139.80465 C 494.15167,139.04153 494.00396,137.91255 495.46226,137.58658 C 496.63945,136.49294 495.72222,135.39931 495.41605,134.30567 C 495.94673,132.32928 496.37455,130.33232 495.69331,128.11355 C 492.7772,128.06547 491.23862,127.09903 489.36256,126.35758 C 489.36256,126.35758 490.65643,124.32434 490.79506,124.04708 C 490.93369,123.76982 492.64346,122.89184 492.64346,122.89184 C 492.64346,122.89184 492.79398,121.52955 493.01314,121.22828 C 493.22019,120.94365 496.45964,120.47243 497.58791,120.71997 C 498.13887,120.84085 500.22188,120.02682 500.22188,120.02682 C 500.59958,119.71876 500.77569,119.41069 500.17567,119.10263 C 500.17567,119.10263 496.52509,117.85496 496.29404,117.85496 C 496.06299,117.85496 492.78209,117.80875 492.78209,117.80875 C 491.69206,115.73691 492.16836,114.2916 492.22757,112.67945 L 495.78573,110.87727 L 495.60089,92.901628 C 495.60089,92.901628 494.86153,92.670579 494.86153,92.485739 C 494.86153,92.3009 494.86153,90.637344 494.86153,90.637344 L 491.62684,90.175245 C 491.62684,90.175245 490.10192,89.066208 490.05571,88.51169 C 490.0095,87.957171 491.21095,87.264023 491.21095,87.264023 L 493.01314,87.587492 C 493.35943,88.279215 493.46611,89.390246 494.2608,89.297258 L 495.32363,89.204838 C 495.32363,89.204838 496.38646,85.877727 496.29404,85.508048 C 496.20162,85.138369 495.04637,82.689246 495.04637,82.689246 C 494.36691,82.787215 493.51156,82.665335 493.2904,83.336184 L 491.39579,86.108777 C 491.39579,86.108777 489.13151,86.755715 489.0853,86.524665 C 489.03909,86.293616 488.43836,84.260382 488.43836,84.260382 C 488.06219,83.95945 490.05415,82.087276 490.14813,82.088518 C 490.37916,82.091571 489.0853,80.656011 489.0853,80.656011 L 487.28311,81.533999 L 486.82101,80.748431 L 491.53442,77.790999 C 491.53442,77.790999 491.80937,76.389941 491.67305,76.635753 C 491.55722,76.844606 490.17266,75.591713 489.96329,74.925987 C 489.83775,74.526814 487.46795,76.959222 487.46795,76.959222 L 485.29609,76.450913 C 485.15691,75.341876 485.42128,74.232839 485.89682,73.123802 C 485.89682,73.123802 487.79142,73.77074 487.79142,73.585901 C 487.79142,73.401061 487.93005,71.922345 487.93005,71.737506 C 487.93005,71.552666 485.57335,68.641444 485.57335,68.641444" id="pathPavlodar1" sodipodi:nodetypes="ccccccccccccccccccccccsccccccccccscssccsccccsccsccccscccscsccccsscccssc"/>

		<path style="fill:none;fill-rule:evenodd;stroke:#8a8a8a;stroke-width:1px;stroke-linecap:butt;stroke-linejoin:round;stroke-opacity:1" d="M 557.12476,234.85155 C 556.93174,236.41376 554.86221,235.78669 552.78682,235.1528 C 552.0454,236.69122 551.36699,238.30841 548.75012,237.50252 C 548.75012,238.27093 545.43264,234.59469 545.19541,234.00806 C 544.81983,233.07929 545.98361,232.28792 546.0389,232.32109 L 546.34015,228.70613 C 546.34015,228.70613 549.42545,228.31714 548.99112,228.46513 C 548.0669,228.78003 548.95722,222.76405 549.17186,222.62096 C 548.30947,221.25734 549.52485,218.40959 549.71411,216.29479 L 551.76258,213.34257 C 552.25211,212.36704 553.99415,212.14301 555.19679,211.59535 L 552.96757,210.39036 L 550.91909,210.69161 L 549.53336,209.30587 L 549.35261,207.4984 C 549.44782,207.4984 551.82672,206.77541 551.52159,206.77541 C 551.28059,206.77541 551.40109,205.44992 551.40109,205.44992 C 550.31735,205.89101 549.72762,205.83808 549.11162,205.81142 C 547.78513,205.0091 546.29873,204.3667 545.73766,202.79896 C 545.74917,201.33373 547.49812,200.86133 548.50912,199.96724 L 550.85884,199.96724 L 553.63031,196.71378 C 554.24302,195.16837 554.66252,193.64228 553.69056,192.25534 L 550.1961,192.13484 L 547.66563,193.03858 C 546.35089,191.91953 545.46593,190.54262 544.95442,188.94163 L 549.41286,185.92917 L 542.78544,179.78374 C 541.27288,178.27751 540.50232,176.77128 540.43572,175.26505 C 543.75141,174.36652 546.53704,173.14995 549.05137,171.7706 C 550.62917,171.5741 551.36274,170.41276 551.82283,168.93888 C 551.86171,167.3724 551.95939,165.80592 551.22034,164.23944 L 551.70233,162.25121 L 557.48626,159.47975 C 558.94222,157.76628 561.20136,156.27186 561.04097,154.11757 L 562.6677,154.17782 L 562.84844,155.5033 C 566.85776,157.24323 570.71085,158.82693 573.45231,159.299 L 576.40452,158.09402 C 577.70998,156.88403 579.40831,155.77225 580.13998,154.41881 C 580.13998,154.41881 580.14311,152.78214 580.56172,152.18959 C 580.99682,151.5737 578.81671,148.29984 578.0915,148.09264 C 578.2513,145.81155 578.89117,143.33843 578.3325,141.34473 L 574.95854,138.33226 C 574.21949,138.41662 572.39897,137.4195 570.92184,136.76578 L 568.27087,132.06634 C 568.27087,132.06634 568.04677,131.27996 568.09013,130.98186 C 568.30933,129.47499 572.21701,127.5939 572.12683,128.08989 L 574.77779,128.39114 C 577.71072,126.64551 580.1433,123.89917 582.79094,121.58297 C 582.79094,121.58297 583.51393,122.72771 583.51393,122.48671 C 583.51393,122.24572 588.33387,118.14877 588.33387,118.14877 L 589.41836,114.53381" id="pathEastKazakhstan1" sodipodi:nodetypes="cccsccsccccccccsccccccccccccccccccccccccscccccscccscc"/>

		<path style="fill:none;fill-rule:evenodd;stroke:#8a8a8a;stroke-width:1px;stroke-linecap:butt;stroke-linejoin:round;stroke-opacity:1" d="M 527.07998,348.03446 C 524.85115,347.71173 523.1712,344.91908 521.37122,342.66652 C 519.92832,343.46813 518.05854,338.25851 518.72986,336.95777 C 519.20526,336.03664 520.68958,333.71997 520.68958,333.71997 C 520.53151,333.29281 520.50898,332.25122 519.4115,331.16381 L 514.38439,329.63011 C 513.0545,329.00527 513.7139,328.38043 513.87316,327.75559 C 515.60114,326.47525 518.00597,325.53333 518.04822,323.41012 L 519.49671,315.40083 L 510.20933,308.41399 L 508.0792,308.92522 C 507.03565,308.7036 506.00299,308.40577 505.18222,306.62468 C 504.36176,304.92217 504.73632,303.81717 504.75619,302.53483 L 505.43783,300.66031 C 504.14958,298.75317 503.19979,298.87679 502.11483,298.18936 C 501.09128,296.85557 499.46415,296.12534 497.76936,295.46279 L 496.23566,294.44032 C 497.52941,292.55552 497.3377,290.29936 496.8321,287.96472 C 496.8321,287.96472 494.78717,281.2335 494.78717,280.89268 C 494.78717,280.55186 494.02032,274.16146 494.02032,274.16146 C 494.3278,271.34721 494.83653,268.63359 496.49128,266.49298 L 408.30379,266.23737" id="pathJambyl1" sodipodi:nodetypes="ccscccccccccccccccsccc"/>

		<path style="fill:none;fill-rule:evenodd;stroke:#8a8a8a;stroke-width:1px;stroke-linecap:butt;stroke-linejoin:round;stroke-opacity:1" d="M 441.10783,364.05305 C 440.76701,363.88264 438.72208,359.9632 438.72208,359.9632 C 438.43433,360.16873 436.18423,359.29588 436.84757,358.59991 C 437.61917,357.79036 435.01485,356.51319 434.97305,356.55499 C 434.35934,356.60157 433.93949,357.15517 431.90566,353.48759 C 431.90566,354.14464 427.86755,351.98538 428.49745,351.69828 C 429.75464,351.12527 429.6501,346.73988 429.09388,346.75638 C 429.09388,346.75638 426.54398,343.21401 426.70814,342.66652 C 426.93354,341.91478 425.82413,340.12634 425.17444,340.45118 C 423.89672,340.01778 422.30028,339.82343 421.42541,339.0879 C 417.95114,339.2668 416.93583,337.19164 416.14268,334.91284 C 415.86487,334.288 415.63217,333.66316 415.80186,333.03832 C 417.21035,330.93419 418.1705,328.89411 418.78404,326.90354 C 419.61787,324.60031 420.62507,322.41266 420.14733,319.23506 L 422.27746,315.31562 L 422.27746,312.24823 C 420.17357,305.3182 419.22928,298.38817 418.1024,291.45814 C 418.16933,291.44597 415.78226,283.50527 414.8646,282.93761 C 414.24186,282.55239 413.1839,275.53352 412.47885,275.26913 L 412.47885,272.45736 C 410.35768,270.41243 409.1198,268.3675 408.4742,266.32257 L 375.07373,266.32257" id="pathSouthKazakhstan1" sodipodi:nodetypes="ccsccscscccccccccscccc"/>

		<path style="fill:none;fill-rule:evenodd;stroke:#8a8a8a;stroke-width:1px;stroke-linecap:butt;stroke-linejoin:round;stroke-opacity:1" d="M 298.47416,235.81908 C 303.29728,232.25077 307.73206,228.39121 313.12947,225.25362 C 317.09309,222.33665 321.32124,219.64012 324.37657,215.96624 C 320.75696,214.34978 319.88266,211.51318 319.09384,208.63859 C 319.54555,208.86445 315.70191,201.5773 313.21468,200.37367 C 312.88083,200.21211 302.3084,195.31222 302.3084,194.57971 L 302.90484,190.74547 C 302.4105,190.21722 302.85265,189.53289 300.60429,189.29698 L 298.47416,190.91588 C 294.9102,188.73303 292.88909,185.60074 291.40212,182.13974 L 289.86843,181.03207 L 289.69802,179.9244 L 293.10623,180.18002 C 292.89519,177.68556 290.84529,175.92664 289.10158,174.04524 L 291.23171,168.76251 C 291.23171,168.76251 293.61746,167.22881 293.70266,166.71758 C 293.78787,166.20635 293.95828,165.18388 293.95828,164.67265 C 293.95828,164.16142 296.85526,161.52006 296.85526,161.52006 C 297.74637,162.41113 298.70063,162.86013 299.75224,162.62773 L 300.34868,160.5828 L 294.55472,150.52857 C 292.89983,148.62565 292.0984,146.72274 291.57253,144.81982 L 290.46486,141.07078 L 287.48268,142.17845 L 287.14186,139.87791 C 287.14186,139.87791 288.07912,138.77024 288.41994,138.25901 C 288.76076,137.74778 291.14651,137.32175 291.14651,137.32175 C 291.14651,137.32175 287.56788,134.76559 287.56788,133.82833 C 287.56788,132.89108 287.22706,130.84615 287.22706,130.84615 L 285.77857,129.82369 L 285.35255,130.0793 L 283.73365,131.613 C 283.16561,131.81904 282.59758,130.69244 282.02954,129.56807 C 282.1682,128.70241 283.2313,128.23294 281.94433,126.75629 L 280.92187,125.2226 L 277.93968,127.43794" id="pathAktobe1" sodipodi:nodetypes="ccccsccccccccccssccccccccscscccccccc"/>

		<path style="fill:none;fill-rule:evenodd;stroke:#8a8a8a;stroke-width:1px;stroke-linecap:butt;stroke-linejoin:round;stroke-opacity:1" d="M 355.53079,361.31472 L 357.69977,361.01347 C 366.54384,353.63619 375.47606,346.32062 385.89641,340.04674 C 386.25138,340.04674 387.33796,337.93801 386.01691,337.09452 C 385.262,336.61251 385.17342,335.88954 384.99267,335.28705 C 384.81193,334.68455 385.47467,332.99757 385.47467,332.51558 C 385.47467,332.03359 387.74329,330.85535 387.04115,330.28636 C 385.92592,329.38262 387.12594,325.76766 387.16165,325.76766 L 389.45112,327.39439 C 389.45112,327.39439 389.63186,321.30922 389.75236,320.94772 C 389.87286,320.58623 391.31884,319.01975 391.31884,319.01975 L 389.87286,317.45327 L 387.04115,315.46504 C 385.91848,315.0614 385.99485,313.45872 385.77591,312.15134 C 384.159,311.65373 382.58101,311.25341 380.65473,309.98236 L 380.83548,306.36741 L 380.95597,292.57033 L 381.37772,288.41313 L 378.60625,288.11189 L 375.53354,285.58142 L 375.1118,283.41245 L 375.95529,281.54472 C 377.45081,278.91384 376.83894,276.28295 377.28077,273.65207 L 378.36526,272.20609 L 377.64227,270.33836 C 375.82603,270.1237 375.97243,268.50716 375.17205,267.56689 C 375.17205,267.56689 375.1118,263.4097 374.8708,263.1687 C 374.6298,262.9277 374.26831,262.14446 374.26831,262.14446 C 371.999,261.68938 370.22597,262.06142 368.42413,262.38546 L 347.75864,261.78297 C 344.64739,259.10948 341.19225,256.95182 338.661,253.40832 L 336.43178,253.70957 L 325.16517,247.74489 L 315.58554,244.31069 C 310.84408,242.42195 310.84593,242.90487 308.47613,242.20196 C 308.09782,242.20196 302.87024,237.14103 302.99345,237.38202 C 303.16907,237.72551 296.24554,239.00875 296.24554,239.00875 C 295.21362,237.58935 297.93251,236.92011 298.776,235.87579 C 297.56111,235.51952 296.54236,235.45747 295.04055,234.67081 L 294.07656,230.81485 L 289.85912,225.39242 L 287.87089,225.27192 C 286.28112,222.69062 285.32024,220.05216 282.08696,217.62027 C 278.47176,217.74026 274.93764,218.02244 271.4831,218.46376 L 265.63892,234.06831 C 264.31199,235.03335 261.36055,234.70963 261.18048,234.42981 C 260.91761,234.02133 255.03505,232.98383 255.03505,232.98383 C 254.82695,235.80273 254.61691,238.62357 254.25181,241.59947 L 249.79337,242.14171 C 242.57624,250.01748 236.28482,258.12467 230.9956,266.48241 C 228.00349,267.16523 226.07513,267.84806 225.33217,268.53088 C 224.01367,271.5122 223.27769,274.68769 222.9222,277.99001" id="pathKyzylorda1" sodipodi:nodetypes="cccssssccsccccccccccccccccsccccccccscccccccccscccccc"/>

		<path style="fill:none;fill-rule:evenodd;stroke:#8a8a8a;stroke-width:1px;stroke-linecap:butt;stroke-linejoin:round;stroke-opacity:1" d="M 134.83781,180.62723 C 135.43831,179.40553 136.21448,178.41638 136.34404,176.40979 C 136.44533,175.41594 137.13221,174.59776 135.74155,173.15633 C 135.74155,173.15633 138.33227,171.34885 139.65775,170.86686 C 140.98323,170.38486 145.44167,170.98735 145.44167,170.98735 C 145.44167,170.98735 144.95968,173.03583 146.28517,172.43334 C 147.61065,171.83084 150.50261,170.38486 150.50261,170.38486 C 150.91838,170.26607 150.27623,169.52453 149.41813,168.93888 C 148.34765,168.20828 150.24784,165.4074 150.80386,165.08293 C 151.32422,164.77926 153.03308,160.50399 152.31009,159.54 C 151.5871,158.57601 149.77962,157.79601 149.77962,156.28654 C 149.77962,156.28654 149.90012,152.31009 150.14112,151.4666 C 150.38211,150.62311 150.98461,146.52616 150.98461,146.52616" id="pathWestKazakhstan1" sodipodi:nodetypes="cccscscssscsc"/>

		<path style="fill:none;fill-rule:evenodd;stroke:#8a8a8a;stroke-width:1;stroke-linecap:butt;stroke-linejoin:round;stroke-miterlimit:4;stroke-dasharray:none;stroke-opacity:1" d="M 191.2859,288.22034 C 189.51242,279.80545 188.94909,266.61303 185.74755,263.42559 L 180.72044,263.16998 L 177.05661,260.86943 L 174.15963,260.3582 L 172.79635,256.18314 L 169.89937,255.92753 C 169.18037,255.01715 168.80654,253.07124 167.68403,253.37137 L 164.19061,256.26835 L 157.28898,257.0352 L 149.36489,257.46122 L 145.18983,256.60917 L 142.29285,256.77958 L 141.78162,258.14287 L 140.41833,261.9771 L 138.03258,264.27765 C 137.03852,265.27901 136.04446,265.71762 135.0504,265.81134 L 123.46248,265.38532" id="pathMangystau1" sodipodi:nodetypes="cccccccccccccccccc"/>

		<path style="fill:none;fill-rule:evenodd;stroke:#8a8a8a;stroke-width:1px;stroke-linecap:butt;stroke-linejoin:round;stroke-opacity:1" d="M 185.74755,263.68121 L 185.06591,259.16533 C 182.61269,257.05073 183.00945,254.57989 182.16893,252.2637 C 182.16893,252.2637 174.20508,249.60739 173.7336,249.70754 C 172.24181,250.02441 167.76642,247.26254 168.11005,247.06618 C 168.11005,247.06618 165.12787,244.08399 164.95746,243.74317 C 164.78705,243.40235 160.27117,234.96702 160.27117,234.96702 L 160.52678,230.02512 L 161.97527,218.01117 C 162.40588,214.74039 161.00946,213.29663 160.18596,211.27995 C 158.62874,209.05873 159.57163,207.46254 159.67473,205.6564 C 156.18398,201.91802 158.73214,200.8636 158.90788,198.75477 C 159.57872,197.22108 158.67638,195.68738 158.31145,194.15369 C 157.42264,193.75707 155.63046,194.08314 155.75529,192.87561 L 153.88077,191.68273 C 152.22874,192.16951 152.1969,194.54651 151.83584,196.53943 C 148.7712,195.37283 145.26268,193.02254 142.80408,193.47204 L 141.69641,182.39535 L 140.24792,182.99179 C 139.14935,182.59275 137.9338,182.1206 135.0504,180.60604 L 133.09068,182.82138 L 131.30137,185.46275 L 127.12631,186.3148 L 122.2696,185.20713 C 120.37173,186.60008 120.07636,188.39365 119.96906,190.23424 L 117.58331,195.77259 C 116.62978,196.58927 117.14653,198.03607 117.75372,199.52162 L 113.66387,200.28847 C 109.35671,198.62267 106.84631,198.75364 103.43923,197.98792 C 103.7971,197.06202 103.19262,195.89554 102.67239,194.75012 C 101.29906,194.28634 98.757316,194.05624 96.281988,193.81286 C 89.432318,197.78669 82.411534,201.67496 76.429153,206.08243 C 74.867056,208.17057 73.304959,209.10189 71.742862,210.34269 C 68.221043,211.57686 64.699224,211.66125 61.177405,211.79118 L 61.773842,214.00652 C 54.696592,211.92538 47.67966,209.93471 41.494981,209.19242 C 32.850017,206.8291 27.149194,207.14228 20.875298,206.93448" id="pathAtyrau1" sodipodi:nodetypes="cccscsccccccccccccccccccccccccccccccc"/>

		<path style="fill:none;fill-rule:evenodd;stroke:#8a8a8a;stroke-width:1px;stroke-linecap:butt;stroke-linejoin:round;stroke-opacity:1" d="M 642.61272,278.72308 L 640.40898,278.47122 C 639.8044,277.65707 640.00013,275.64244 640.03119,273.87483 C 635.73864,267.91202 632.23011,262.10602 628.7606,256.30782 C 629.92626,255.08018 630.16367,253.66689 630.5236,252.27811 C 628.5768,252.64 627.28009,253.65198 625.80128,254.48186 C 623.74982,252.28072 619.35,250.47096 613.2714,248.94101 L 606.15645,245.98169 C 605.92317,244.9113 605.23402,243.8409 603.82677,242.77051 L 602.1897,242.51866 C 599.40219,243.33036 597.08599,244.33058 595.13771,245.47797 L 591.23393,245.41501 L 586.44865,237.35559 C 584.96444,238.75911 581.44928,238.38557 578.76702,238.7408 C 578.79502,236.39991 577.64087,235.95044 575.99659,236.2852 C 573.97415,234.96117 571.67206,232.7982 569.95203,232.38142 L 566.99271,235.21481 C 565.85367,234.17897 564.88313,233.98563 563.90746,233.76663 C 563.69188,234.48022 563.07361,235.19382 562.01854,235.90741 C 560.42345,235.32413 558.82835,234.55938 557.23326,234.77406 L 557.61104,249.25583 C 555.65763,250.66659 553.99774,251.19678 552.19612,252.15218 L 546.97009,251.96329 C 544.28612,251.5753 541.14526,251.1524 537.96621,249.50768 L 535.95135,249.38176 C 533.85255,247.76541 530.80928,248.23075 528.71047,247.80765 C 526.27004,247.2526 523.46689,247.42298 520.52512,247.87061 C 516.05207,248.52881 511.29584,252.30191 506.673,254.60779 C 502.96698,258.6199 497.79559,262.53431 496.34687,266.69691" id="pathAlmaty1" sodipodi:nodetypes="ccccccccccccccccccccccccccccc"/>
	</g>

	<g id="lakes">
		<path style="fill:#bbebeb;fill-opacity:1;fill-rule:evenodd;stroke:#c3c5fa;stroke-width:1px;stroke-linecap:round;stroke-linejoin:round;stroke-opacity:1" d="M 61.140584,424.75027 C 60.984402,424.56806 64.287068,420.40373 66.337533,418.33051 C 68.432016,416.21279 77.682719,414.16902 78.133321,418.81529 C 78.381509,421.37442 79.661745,416.9036 73.85348,409.94991 C 71.662408,407.32675 68.783157,410.99364 68.783157,410.99364 C 68.805566,410.97683 64.606849,411.14527 62.974801,408.54802 C 61.156318,405.65408 65.813546,408.34248 62.363395,404.26818 C 58.816968,400.08018 55.20277,395.77323 55.332228,395.7085 C 57.561623,395.882 55.923872,388.41246 53.569005,386.16071 C 51.787668,384.45738 45.460197,375.42084 45.460197,375.42084 C 45.460197,375.42084 42.492706,377.97773 41.575597,374.00359 C 40.658488,370.02945 40.964191,367.58383 38.518568,364.5268 C 36.072944,361.46977 36.378647,362.38688 33.321618,357.49563 C 30.264589,352.60438 30.264589,352.60438 30.264589,352.60438 L 31.113886,349.77438 L 26.883313,345.53931 C 26.476864,345.40383 26.893607,340.88303 28.124668,340.07056 C 29.14525,339.397 27.549036,336.35348 27.20756,335.17932 C 26.706099,333.45505 30.648255,328.84108 29.958886,327.23104 C 29.34505,325.79741 31.199547,319.89417 31.793104,319.89417 L 26.901857,327.53674 L 25.679045,332.42799 L 26.596154,322.6455 C 26.596154,322.6455 25.660501,318.656 23.214878,316.21037 C 20.769254,313.76475 18.953581,310.41738 18.953581,310.41738 C 18.953581,310.41738 18.422275,311.73193 15.285146,309.80598 C 11.301521,307.36035 13.321916,302.87801 14.062334,300.94059 C 14.708953,299.24861 20.571125,295.95412 20.210299,298.65868 L 25.824215,284.99159 L 27.494719,281.23679 L 25.46288,273.60959 L 29.68709,277.56518 L 28.714349,272.8901 C 28.714349,272.8901 32.543317,275.76487 32.849019,274.54206 C 33.154722,273.31925 35.711609,274.88803 39.074341,273.35951 C 42.437073,271.831 43.903123,265.35677 45.244032,267.61897 C 47.954856,272.19231 50.099477,272.42117 49.829576,270.9817 C 49.829576,270.9817 49.523873,269.75889 48.606764,267.92468 C 47.689655,266.09046 46.292935,263.22423 49.005187,263.57066 C 52.273013,263.98805 53.985794,263.09936 55.767739,259.74169 C 57.104261,257.22332 57.688323,260.94914 58.605422,259.42062 C 59.522519,257.8921 58.315081,255.39086 58.315081,255.39086 C 58.315081,255.39086 59.161647,256.25505 60.850243,255.882 C 61.973657,255.63381 59.654946,251.48531 59.044988,250.67949 C 58.685825,250.205 62.591763,253.77896 65.211941,251.08162 C 66.58634,249.66674 67.899955,252.38628 67.899955,252.38628 C 70.74188,250.04789 73.583805,247.8771 76.42573,244.99696 C 76.480177,244.96974 79.032234,243.02047 80.70557,242.85704 C 82.745858,242.65777 86.067646,238.98076 87.736738,240.41141 C 87.913441,239.17449 91.620565,237.95869 92.933687,237.66009 C 95.360545,237.10824 100.21555,238.73996 99.353448,239.4943 C 99.353448,239.4943 103.32794,243.77172 105.46751,244.07985 C 107.20597,244.33021 110.97544,247.74799 110.35222,243.82889 C 110.30063,243.50449 110.98827,243.77414 111.27586,243.77414 C 112.80438,243.77414 114.63859,240.10571 114.63859,240.10571 C 117.19143,242.28653 123.09531,241.99459 122.04964,240.9301 C 119.83455,238.67512 126.59751,243.52119 126.21822,244.00885 L 128.08634,248.1467 L 124.81315,251.93858 L 125.89396,253.82525 C 128.01461,262.39603 125.84468,260.86261 126.25212,264.32724 L 122.92647,271.75364 L 120.04853,276.10448 C 120.04853,276.10448 118.5314,276.82622 121.03841,279.06111 C 123.54543,281.296 130.1768,284.07261 129.42041,283.96322 C 127.8919,283.74216 128.68875,285.73272 125.32601,284.93595 C 121.44752,284.01698 115.05556,282.16609 115.05556,282.16609 C 114.7537,281.96485 104.96259,283.38272 105.46751,283.51552 C 107.36059,284.01342 103.02188,282.29271 103.02188,282.29271 L 99.047746,284.73834 L 96.006079,282.99366 L 93.687082,287.18396 L 93.619269,290.49106 L 88.005352,293.76425 L 88.400594,296.80274 C 90.415981,298.28736 93.125613,299.30914 93.545093,301.8577 C 94.30643,302.39817 94.462834,304.99865 95.990716,303.38621 L 98.992113,305.63421 L 95.252684,306.10046 C 95.252684,306.10046 93.38456,306.90947 92.161749,306.90947 C 90.938937,306.90947 87.718194,303.62092 87.718194,303.62092 C 83.767685,301.58318 80.431191,302.30851 77.037135,302.77481 C 76.334448,304.04513 74.431266,304.26501 75.814324,307.36035 C 75.80421,309.81609 76.83594,311.22998 78.259947,312.2516 C 80.749709,310.74324 83.430987,311.53308 86.208223,313.47441 C 86.5785,316.82648 87.209423,320.25301 89.570955,324.17401 C 90.997569,329.26689 92.424182,331.87419 93.850796,331.20518 C 95.492026,334.66981 95.685143,338.13445 94.156499,341.59908 L 100.61335,341.22238 L 105.1618,350.15876 L 110.66446,348.01884 C 110.76028,350.61635 111.75175,350.34443 112.84434,350.44844 C 113.48616,350.50953 116.17284,348.78495 118.30703,352.91009 C 119.25441,353.09672 120.57705,352.43904 120.44695,355.05001 C 118.95181,359.32985 117.27391,363.60969 114.63859,367.88953 C 114.3966,370.41153 113.40864,370.98178 114.66301,372.44159 C 115.4896,373.40355 115.29734,376.69901 114.96284,379.14491 C 117.17785,381.06394 117.09981,383.21555 117.01004,385.42268 C 118.75943,385.42268 123.38897,396.3199 122.28117,394.48568 C 121.31983,392.89395 120.75265,386.53741 120.75265,386.53741 C 120.75265,386.53741 125.03249,381.95186 123.50398,380.72905 C 121.97546,379.50624 121.05836,381.54126 121.05836,380.31845 C 121.05836,379.09564 124.20493,372.15082 125.42774,371.23371 C 126.65055,370.31661 129.43682,371.64299 130.22944,370.71185 C 132.02873,368.5981 139.06972,368.29348 138.80767,369.25433 C 141.41504,372.00192 139.13165,375.63448 141.84615,378.89483 C 142.71667,381.14615 142.92365,384.06102 143.24486,386.86166 C 148.37498,389.31545 152.90574,393.1536 155.44226,396.53924 L 155.189,401.80082 C 155.189,401.80082 151.34149,406.26292 150.11868,403.20589 C 148.89587,400.14886 147.0431,401.21115 147.0431,401.21115 L 147.0431,403.96247 L 149.39918,406.89288 L 144.29178,407.32521 C 144.29178,407.32521 139.5774,410.12031 137.87202,409.15942 C 135.15922,407.63091 136.27083,400.65219 135.10214,402.18071 C 133.9132,403.73571 133.59218,405.95722 133.59218,405.95722 L 128.39523,405.18529 C 128.39523,405.18529 125.9496,406.10239 125.6439,404.26818 C 125.3382,402.43396 122.89257,397.23701 122.89257,397.23701 L 121.97546,405.18529 C 122.54434,408.01444 121.58092,410.58821 120.44695,413.13356 C 119.62496,414.28392 118.40568,415.16941 119.22414,417.4134 L 119.83554,425.05598 L 61.140584,424.75027 z " id="pathCaspian" sodipodi:nodetypes="cssscsscscssscccsssccccscssccccccssscsssscsssccscscssscscccccccssscscccccccccccscccccccccccscccsccscsssscccccsccccssccscccccc"/>

		<path sodipodi:nodetypes="cccccccccccccccccccccccccccccccccccccccccccccccccccccccccccccccccccccccccccc" id="pathBalkhash" d="M 496.31103,288.30633 L 494.25616,282.5258 L 492.19309,281.80725 L 490.36606,277.59837 L 487.97521,274.41415 L 485.36043,272.96076 L 487.05181,269.88691 L 486.69605,267.63758 L 489.41897,264.923 L 491.28221,263.85354 L 489.5551,260.5387 L 490.49878,258.24451 L 496.20432,257.47321 L 496.56828,254.66057 L 499.30714,253.48909 L 503.86531,249.9214 L 505.96457,245.36164 L 508.27961,244.13299 L 510.82249,244.47601 L 514.77679,243.90874 L 519.93447,245.70514 L 521.88557,247.28913 L 523.06916,244.80719 L 526.38773,244.15415 L 530.25806,244.23597 L 533.33673,243.77074 L 536.47525,246.17529 L 538.82217,248.03281 L 541.85691,246.24083 L 544.65564,247.93917 L 547.65033,248.12299 L 550.05323,249.5478 L 553.97952,249.19689 L 559.76906,247.77651 L 565.70245,248.57687 L 568.10535,250.00169 L 570.77613,251.02235 L 572.42359,246.62177 L 576.88572,245.46261 L 579.55651,246.48328 L 578.59303,243.93183 L 582.46333,244.01365 L 585.21812,244.38524 L 586.49343,247.85929 L 583.65466,248.13676 L 582.40302,252.81086 L 580.00397,254.68859 L 574.4384,254.3781 L 572.13544,253.84732 L 567.16552,255.59838 L 563.98691,255.16961 L 563.06738,253.94491 L 556.71018,253.08737 L 554.70309,251.93608 L 550.80479,252.07064 L 547.48621,252.72366 L 544.8434,251.48663 L 534.64388,250.33094 L 531.0854,251.17172 L 527.27108,250.65718 L 524.03648,250.66115 C 523.01992,249.64601 521.61719,247.97811 522.39724,249.99975 L 519.53047,250.49358 L 517.85114,251.80799 L 513.99675,253.26927 L 510.97406,253.30179 L 508.99065,260.29866 L 505.99981,263.41737 L 502.66531,262.52729 L 499.95445,263.48242 L 499.67448,265.646 L 500.6259,269.95688 L 499.35832,273.08789 L 497.03121,276.07599 L 496.65519,280.64809 L 496.31103,288.30633 z " style="fill:#bbebeb;fill-opacity:1;fill-rule:evenodd;stroke:#c3c5fa;stroke-width:1.05154216px;stroke-linecap:butt;stroke-linejoin:miter;stroke-opacity:1;display:inline"/>
		
		<g id="groupAral" transform="matrix(1.1638378,6.3967721e-2,-6.3967721e-2,1.1638378,-15.602041,-62.670854)">
			<path sodipodi:nodetypes="cccccccccccccccccccccccccccccccccccccccccccccccccccccccccccccccccccccccccccccccccccc" id="pathAral1" d="M 223.38718,276.7968 L 221.84752,277.87456 L 221.38562,280.49199 L 222.00148,284.34114 L 220.61579,286.18874 L 219.07612,287.7284 L 219.99992,289.88393 L 222.00148,289.11409 L 220.92371,292.96325 L 218.46026,294.65687 L 218.30629,298.66 L 215.68887,301.43139 L 212.91748,301.58536 L 211.06988,300.50759 L 210.76195,298.35207 L 213.53334,296.35051 L 211.83971,294.04101 L 212.14765,288.80616 L 215.5349,284.18718 L 215.68887,281.56975 L 219.07612,278.02853 L 219.84595,275.25714 L 221.69355,273.10161 L 221.69355,270.17626 L 224.15701,267.40486 L 231.54738,266.94297 L 232.77911,266.3271 L 233.39498,267.2509 L 232.47118,268.48263 L 231.54738,269.71436 L 228.77599,269.71436 L 231.23945,270.94609 L 231.39342,273.10161 L 234.01084,273.10161 L 237.86,271.40799 L 238.78379,268.1747 L 240.63139,266.01917 L 240.63139,264.94141 L 239.2457,262.47795 L 237.70604,259.0907 L 242.01708,259.55259 L 242.01708,263.40174 L 242.01708,265.71124 L 245.40434,265.71124 L 247.71383,266.94297 L 251.40902,266.3271 L 252.79472,266.94297 L 255.10421,267.55883 L 252.79472,269.25246 L 251.40902,270.94609 L 248.17573,269.86832 L 244.94244,268.79056 L 242.17105,268.79056 L 240.93932,271.10005 L 240.78536,272.94765 L 239.24569,273.71748 L 239.55363,277.10473 L 241.70915,277.41267 L 242.63295,276.48887 L 245.09641,277.87456 L 245.09641,285.72684 L 244.32658,286.49667 L 243.86468,300.19966 L 242.63295,304.04882 L 242.63295,306.51227 L 238.01396,310.82334 L 237.86,313.13283 L 235.39654,311.13127 L 232.16325,311.13127 L 230.93152,306.82021 L 229.23789,304.66468 L 228.16013,300.96949 L 227.54426,298.81397 L 227.54426,296.04257 L 231.70135,289.57599 L 233.08705,286.8046 L 233.54894,283.26338 L 232.93308,279.26026 L 232.16325,274.48731 L 230.62359,273.25558 L 229.39186,270.63815 L 227.69823,271.40799 L 226.31253,273.40955 L 223.38718,276.7968 z " style="fill:#bbebeb;fill-opacity:1;fill-rule:evenodd;stroke:#c3c5fa;stroke-width:1px;stroke-linecap:butt;stroke-linejoin:miter;stroke-opacity:1;display:inline"/>
			<path id="pathAral2" d="M 261.7487,265.60969 L 259.43838,264.1757 L 258.32305,261.86538 L 257.28739,258.9974 L 256.5704,260.03306 L 254.73808,261.14839 L 252.18876,259.31607 L 251.94976,257.48375 L 250.19711,258.83807 L 246.13413,258.12108 L 244.93914,255.97009 L 245.17814,254.61577 L 247.24946,253.50044 L 249.71911,251.74778 L 252.42776,253.26144 L 253.54308,255.17343 L 256.65006,255.17343 L 257.44672,252.54445 L 255.53474,251.42912 L 255.53474,250.39346 L 257.04839,250.47313 L 258.40272,253.42077 L 258.24339,255.57176 L 260.39437,257.40408 L 262.38603,257.80241 L 264.05901,258.7584 L 265.49301,258.51941 L 267.40499,256.12942 L 266.28967,260.03306 L 265.81167,261.54672 L 264.85568,262.50271 L 263.26235,263.29938 L 261.7487,265.60969 z " style="fill:#bbebeb;fill-opacity:1;fill-rule:evenodd;stroke:#c3c5fa;stroke-width:1px;stroke-linecap:butt;stroke-linejoin:miter;stroke-opacity:1;display:inline"/>
		</g>
	</g>
</svg>